<?xml version="1.0" standalone="no"?>
<!DOCTYPE svg PUBLIC "-//W3C//DTD SVG 20010904//EN"
 "http://www.w3.org/TR/2001/REC-SVG-20010904/DTD/svg10.dtd">
<svg version="1.0" xmlns="http://www.w3.org/2000/svg"
 width="500.000000pt" height="500.000000pt" viewBox="0 0 500.000000 500.000000"
 preserveAspectRatio="xMidYMid meet">

<g transform="translate(0.000000,500.000000) scale(0.100000,-0.100000)"
fill="#000000" stroke="none">
<path d="M2320 4545 c-276 -27 -517 -96 -755 -218 -70 -35 -311 -189 -325
-206 -3 -3 -30 -26 -60 -51 -266 -214 -504 -559 -619 -898 -91 -270 -126 -526
-109 -804 40 -644 380 -1220 943 -1595 216 -143 483 -247 773 -300 138 -25
526 -25 664 0 434 79 782 257 1092 557 169 164 289 322 395 522 205 385 281
864 206 1289 -53 296 -158 557 -323 802 -236 352 -559 612 -954 767 -202 80
-377 120 -611 139 -147 13 -139 13 -317 -4z m-12 -857 c9 -9 12 -96 12 -331 0
-200 4 -325 10 -338 12 -22 71 -27 87 -6 10 12 33 425 33 583 0 87 8 104 50
104 41 0 50 -17 50 -99 0 -143 22 -556 31 -578 12 -30 73 -33 89 -4 6 13 10
138 10 338 0 235 3 322 12 331 7 7 24 12 40 12 34 0 41 -24 57 -195 7 -66 16
-156 21 -200 29 -255 33 -334 21 -388 -16 -72 -55 -132 -122 -187 -121 -100
-123 -107 -114 -387 4 -117 11 -215 15 -218 3 -2 22 8 41 24 58 47 582 445
906 687 210 158 228 166 277 117 47 -47 47 -102 -1 -147 -16 -14 -84 -71 -153
-127 -175 -142 -202 -164 -304 -250 -50 -41 -151 -123 -224 -182 l-132 -107
-59 0 c-66 0 -53 8 -226 -135 -113 -93 -287 -227 -339 -259 -24 -15 -30 -16
-38 -5 -8 11 -9 10 -5 -2 5 -15 -40 -59 -59 -59 -4 0 -19 -10 -33 -22 l-26
-23 23 26 c15 17 20 29 13 34 -6 3 -15 4 -20 1 -15 -10 1 38 18 52 9 8 10 11
4 7 -8 -4 -13 0 -13 9 0 18 -16 21 -26 5 -4 -7 -10 -7 -16 -1 -12 12 14 56 27
44 4 -4 3 2 -3 14 -10 18 -3 26 67 77 l78 57 6 68 c4 37 9 177 12 312 6 243 6
245 -18 290 -14 26 -47 63 -83 90 -75 59 -117 121 -134 199 -13 62 -13 57 20
376 5 50 14 137 20 195 16 158 20 183 32 197 13 16 50 17 66 1z m-263 -745 c4
-21 13 -61 21 -90 8 -28 14 -54 14 -58 0 -4 -133 -5 -295 -2 -162 4 -296 3
-298 -1 -5 -8 50 -62 56 -55 3 2 13 -7 23 -20 11 -13 21 -23 24 -23 15 2 61
-45 54 -55 -4 -8 -3 -9 5 -5 7 5 34 -10 66 -36 29 -23 88 -70 131 -103 42 -33
108 -86 145 -118 79 -67 81 -72 47 -181 -26 -86 -23 -75 -32 -111 -4 -16 -13
-43 -19 -60 l-11 -29 -8 24 c-6 21 -7 20 -4 -8 1 -18 -1 -35 -6 -38 -8 -5 -13
39 -8 61 13 50 12 55 -9 55 -11 0 -21 4 -21 9 0 5 -3 17 -7 27 -4 10 -2 15 4
11 5 -3 10 0 10 8 0 10 -4 12 -12 5 -7 -5 -15 -7 -18 -3 -4 3 -7 -2 -8 -13 -1
-14 -3 -13 -8 6 -4 14 -4 28 1 31 4 3 2 13 -5 23 -12 16 -13 13 -10 -24 3 -34
-1 -48 -18 -63 l-22 -20 6 29 c3 16 10 45 16 64 5 19 12 44 15 55 4 15 -5 28
-37 51 -23 17 -40 37 -39 45 2 8 0 11 -3 7 -11 -10 -47 11 -40 23 4 5 1 8 -6
7 -7 -2 -13 2 -14 9 0 6 -4 15 -9 20 -5 5 -6 3 -2 -4 12 -21 -10 -15 -30 9
-10 12 -13 18 -6 14 7 -4 12 -1 12 8 0 9 -5 15 -11 14 -6 -2 -16 5 -22 15 -10
14 -9 20 3 27 8 5 11 10 5 10 -5 0 -16 -4 -24 -9 -12 -8 -12 -13 3 -35 16 -25
14 -25 -27 6 -24 18 -42 37 -39 42 2 4 8 3 12 -4 8 -13 50 -5 50 11 0 13 -17
11 -24 -3 -3 -10 -9 -8 -19 5 -15 18 -32 24 -22 7 3 -5 0 -10 -7 -10 -20 0
-65 43 -61 58 3 8 -1 10 -12 6 -10 -4 -15 -2 -13 7 2 8 -3 13 -9 12 -7 -2 -13
2 -13 7 0 13 17 13 25 0 3 -5 11 -10 16 -10 6 0 7 5 3 12 -4 7 -3 8 4 4 23
-14 34 6 12 21 -13 9 -19 21 -15 32 7 22 -19 45 -41 37 -18 -7 -54 19 -54 38
0 6 -18 31 -40 56 -29 33 -40 57 -45 92 -7 51 -35 70 -35 23 0 -25 -19 -36
-22 -12 -4 36 -1 43 22 48 21 6 19 7 -12 8 -21 0 -38 -3 -38 -9 0 -5 -8 -10
-17 -10 -15 0 -16 2 -3 10 13 9 13 10 0 11 -8 1 1 5 20 9 l35 7 -30 4 c-41 5
278 14 562 17 l232 2 6 -37z m1515 30 c-1 -5 -26 -26 -57 -48 -31 -22 -83 -61
-116 -87 l-60 -48 -208 0 -209 0 14 34 c7 18 17 53 21 77 13 87 -20 79 316 79
164 0 299 -3 299 -7z m-2402 -53 c-7 -10 -14 -17 -17 -15 -4 4 18 35 25 35 2
0 -1 -9 -8 -20z m13 -97 c13 -16 12 -17 -3 -4 -10 7 -18 15 -18 17 0 8 8 3 21
-13z m199 -155 c9 -3 10 -7 3 -11 -6 -4 -19 3 -29 16 -11 12 -12 17 -4 11 8
-6 22 -13 30 -16z m65 -18 c0 -16 -3 -30 -8 -30 -6 0 -5 37 2 58 4 10 7 -3 6
-28z m45 17 c0 -8 -7 -14 -15 -14 -16 0 -19 9 -8 20 11 11 23 8 23 -6z m-73
-26 c-1 -16 -4 -17 -15 -9 -10 9 -11 13 0 19 17 11 17 12 15 -10z m1803 -646
c30 -104 36 -127 59 -207 5 -18 32 -112 61 -208 56 -192 57 -225 13 -260 -38
-29 -80 -25 -138 13 -44 30 -240 164 -490 335 -44 30 -88 62 -98 72 -17 16
-16 17 14 41 18 13 50 39 71 56 l40 33 76 -53 c286 -198 302 -208 302 -192 0
9 -21 87 -46 173 -71 242 -68 219 -26 241 21 11 55 33 77 50 22 16 43 27 46
23 4 -4 21 -56 39 -117z m-980 -165 c0 -5 -5 -10 -11 -10 -5 0 -7 -6 -3 -12 4
-7 4 -10 -1 -6 -4 4 -26 -2 -49 -14 -47 -24 -46 -21 9 21 43 32 55 37 55 21z"/>
<path d="M2296 1716 c-16 -7 -25 -15 -20 -18 5 -3 23 3 39 13 34 21 24 24 -19
5z"/>
<path d="M1523 2701 c0 -11 5 -18 9 -15 4 3 5 11 1 19 -7 21 -12 19 -10 -4z"/>
<path d="M1757 2371 c2 -10 10 -18 18 -18 16 0 9 23 -10 30 -8 4 -11 -1 -8
-12z"/>
<path d="M1823 2339 c-2 -23 3 -25 10 -4 4 8 3 16 -1 19 -4 3 -9 -4 -9 -15z"/>
<path d="M1860 2273 c8 -3 18 -11 22 -17 5 -7 8 -4 8 7 0 11 -7 17 -22 16 -16
0 -18 -2 -8 -6z"/>
<path d="M1901 2204 c0 -11 3 -14 6 -6 3 7 2 16 -1 19 -3 4 -6 -2 -5 -13z"/>
</g>
</svg>
